<?xml version="1.0" encoding="utf-8"?>
<!-- Generator: Adobe Illustrator 26.4.1, SVG Export Plug-In . SVG Version: 6.00 Build 0)  -->
<svg version="1.1" id="圖層_1" xmlns="http://www.w3.org/2000/svg" xmlns:xlink="http://www.w3.org/1999/xlink" x="0px" y="0px"
	 viewBox="0 0 512 512" style="enable-background:new 0 0 512 512;" xml:space="preserve">
<g>
	<g transform="translate(0.000000,512.000000) scale(0.100000,-0.100000)">
		<path d="M1267.1,2754.8c-22.4-21.6-25.8-44.9-12.5-70.6c5-8.3,170.4-138,368.2-287.5c197-148.8,364.8-276.7,371.5-283.4
			c18.3-17.5-28.3,4.2-340.7,157.1c-491.2,241-661.5,322.5-674.8,322.5c-6.6,0-22.4-7.5-34.9-17.5c-24.1-19.1-29.9-60.7-11.6-84.8
			c5.8-7.5,223.6-116.3,484.5-243.5c261-126.3,475.4-231.9,477.9-233.5c2.5-2.5-3.3-2.5-12.5,0C987,2263.7,805,2311.1,777.6,2301.9
			c-15-5-34.9-16.6-42.4-24.9c-8.3-9.1-30.7-69.8-49.9-135.5l-34.1-118l-41.6-5c-56.5-7.5-98.1-28.3-131.3-66.5
			c-72.3-84.8-56.5-206.9,35.7-272.6c23.3-16.6,194.5-67.3,227.7-67.3c21.6,0,55.7,37.4,55.7,60.7c0,39.9-24.9,56.5-121.3,81.4
			c-95.6,24.9-119.7,40.7-119.7,79.8c0,23.3,34.1,60.7,55.7,60.7c35.7-0.8,1766.8-448.8,1781-461.2c8.3-7.5,19.1-34.9,24.1-62.3
			c11.6-58.2,33.2-88.1,79-108.9c43.2-19.9,83.1-19.9,126.3,0c45.7,20.8,67.3,50.7,79,108.9c5,27.4,15.8,54.8,24.1,62.3
			c8.3,7.5,954.9,253.5,1243.3,327.4c288.4,73.1,531,133.8,538.5,133.8c20.8,0,54.9-38.2,54.9-60.7c0-50.7,26.6-42.4-870.9-271.8
			c-463.7-118.8-847.7-219.4-854.3-225.2c-6.6-5-21.6-31.6-33.2-58.2c-25.8-56.5-78.1-108.9-134.6-134.6
			c-54.8-24.9-164.5-24.9-218.6,0c-57.3,25.8-105.5,74-137.1,137.1c-16.6,33.2-36.6,60.7-47.4,64.8c-10,4.2-136.3,37.4-280.1,74
			s-416.4,105.5-605,153.7c-188.7,49-352.4,88.1-363.2,88.1c-47.4,0-73.1-71.5-38.2-103.1c10-9.1,235.2-70.6,613.3-167.9
			c328.3-83.9,597.5-152.9,598.4-152.9c0,0,11.6-19.9,25.8-44c75.6-133.8,245.2-215.2,400.6-191.1
			c115.5,18.3,229.4,94.7,284.2,191.1c19.9,35.7,30.7,45.7,54.8,51.5c17.5,5,208.6,53.2,425.5,108.9
			c1011.4,257.6,1177.6,301.7,1203.4,313.3c54.8,25.8,101.4,101.4,101.4,164.5c0,64.8-46.5,138.8-104.7,166.2
			c-17.5,8.3-49.9,16.6-73.1,19.9l-41.6,5l-34.1,118c-53.2,181.2-61.5,186.2-242.7,135.5c-67.3-19.1-129.6-39.9-137.1-47.4
			c-19.9-18.3-19.1-64.8,1.7-85.6c22.4-22.4,46.5-20.8,149.6,7.5c47.4,14.1,87.3,24.1,88.1,23.3c5.8-5.8,53.2-182.8,50.7-185.3
			c-1.7-2.5-36.6-12.5-77.3-23.3c-152.1-40.7-1520.8-389.8-1540.8-393.1c-19.1-3.3-23.3,2.5-51.5,71.5c-26.6,65.7-28.3,75.6-16.6,79
			c7.5,2.5,266.8,74,575.1,158.7s575.9,159.6,595,167c32.4,11.6,53.2,37.4,53.2,64.8c0,22.4-34.1,54.8-58.2,54.8
			c-12.5,0-593.4-157.1-595-155.4c-0.8,0.8,212.8,106.4,475.4,234.4c263.4,127.2,482,238.5,486.2,246c15,28.3,8.3,64-14.1,81.4
			c-12.5,10-28.3,17.5-35.7,17.5s-224.4-103.1-482.8-229.4c-508.6-248.5-551-268.4-531.9-250.1c6.6,6.6,174.5,133.8,371.5,283.4
			c197.8,149.6,363.2,278.4,368.2,287.5c13.3,25.8,10,49-12.5,70.6c-40.7,41.6,53.2,108-1161-811.9l-131.3-98.9l-292.5,221.9
			c-435.5,329.1-596.7,451.3-777,587.6c-105.5,79-169.5,122.2-182.8,122.2C1296.2,2775.6,1277.9,2766.5,1267.1,2754.8z
			 M2461.3,1723.5c11.6-3.3-50.7-152.9-54.8-152.9c-15,0-1624.7,412.2-1630.5,418c-2.5,1.7,51.5,187.8,62.3,184.5
			C845.8,2171.4,2453,1726,2461.3,1723.5z M2586,1534c18.3-45.7,19.1-54.8,10-72.3c-5.8-10.8-10.8-29.9-11.6-42.4
			c0-32.4-8.3-48.2-24.9-48.2s-24.9,15.8-24.9,48.2c-0.8,12.5-5.8,31.6-11.6,42.4c-9.1,17.5-8.3,26.6,10,72.3
			c11.6,29.1,23.3,53.2,26.6,53.2S2574.4,1563.1,2586,1534z"/>
	</g>
	<path d="M255.9,266.5l-13.2-12c-46.8-42.4-77.7-70.5-77.7-104.7c0-28.1,22-50,50-50c15.8,0,31,7.4,40.9,18.9
		c9.9-11.5,25.1-18.9,40.9-18.9c28,0,50,21.9,50,50c0,34.2-30.9,62.3-77.7,104.7L255.9,266.5z"/>
</g>
</svg>
