<?xml version="1.0" encoding="utf-8"?>
<!-- Generator: Adobe Illustrator 26.4.1, SVG Export Plug-In . SVG Version: 6.00 Build 0)  -->
<svg version="1.1" id="圖層_2" xmlns="http://www.w3.org/2000/svg" xmlns:xlink="http://www.w3.org/1999/xlink" x="0px" y="0px"
	 viewBox="0 0 512 512" style="enable-background:new 0 0 512 512;" xml:space="preserve">
<path d="M0,135.4c2.3-3.1,4.1-6.3,6.9-8.3C14.2,121.6,23,123,32,123c0,1.9,0,3.6,0,5.4c0,74.5-0.2,149,0.1,223.4
	c0.1,23.8,14,40.4,36.6,46.9c4.3,1.2,9.1,1.2,13.7,1.2c28.9,0,56.9,5,83.8,15.3c18,6.9,34.7,16.6,48.7,30.2c0.7,0.7,1.3,1.4,2.3,2.5
	c-9.7-1.8-18.8-3.7-28-5.2c-6.7-1.1-13.5-2.3-20.3-2.6c-16.4-0.6-32.8-1.4-49.2-0.9c-15.4,0.5-30.7,1.9-46,3.9
	c-17.5,2.4-34.7,6.1-52.2,8.8c-9.2,1.4-16-3-21.2-10.8C0,339.2,0,237.6,0,135.4z"/>
<path d="M512,439.5c-4.7,8.5-11.3,13.7-20.9,12.3c-9.1-1.3-18-3.7-27-5.3c-7.8-1.4-15.7-2.5-23.6-3.5c-11.8-1.5-23.7-2.7-35.5-4
	c-1.3-0.1-2.7,0-4,0c-14,0-28-0.6-42,0.2c-14,0.8-27.8,3-41.7,4.8c-7.3,1-14.6,2.5-22.7,2.8c7.4-5.6,14.6-11.6,22.4-16.7
	c18.3-12.1,38.6-19.7,60-24c11.7-2.4,23.7-3.7,35.6-5c9.6-1.1,19.5-0.6,28.9-2.4c6.6-1.2,13.3-4.1,18.8-8c9-6.3,15.5-15,17.7-26.2
	c0.8-4.3,1.9-8.6,1.9-12.9C480,277.3,480,203,480,128.7c0-1.8,0-3.6,0-5.3c17.3-1.8,27.7,1.2,31.6,12.5C512,236.9,512,338,512,439.5
	z"/>
<path d="M60,174.9c0-32.7,0.2-64.8-0.1-97C59.8,67,69.4,60,77.8,59.9c31.2-0.3,61.6,4.6,90.5,16.2c15.3,6.1,29.5,14.3,42.1,25.4
	c11.9,10.4,22.4,21.9,30.3,35.6c0.9,1.6,1.3,3.7,1.3,5.6c0.1,96.5,0.1,193,0.1,290.1c-4.6-4.1-9-7.9-13.3-11.7
	c-15.4-13.6-32.9-24-52.1-31c-14.4-5.3-29.4-9.3-44.3-12.9c-8.5-2.1-17.4-2.5-26.2-3.3c-10.3-0.9-20.7-1.3-31-2.1
	c-7.5-0.6-15.3-9-15.3-17.5c0.2-45.7,0.1-91.3,0.1-137C60,203.4,60,189.4,60,174.9z"/>
<path d="M270,427.6c0-93.6,0.1-186.8-0.1-279.9c0-6.6,1.7-12.2,5.3-17.3c13.5-18.8,29.9-34.4,50.4-45.5c19.7-10.6,40.5-18,62.7-20.9
	c14.9-2,30-3.2,45-4c11.2-0.6,18.7,7.4,18.7,18.4c0,91.7-0.1,183.3,0.2,275c0,9.7-9.2,18.5-18.4,18.7c-31.9,0.6-63.5,4.5-93.6,15.9
	c-20.9,7.9-40.5,18.4-57.3,33.5c-4,3.6-8,7-12.9,11.2C270,430.5,270,429.3,270,427.6z"/>
</svg>
